# xmcd
#
# Track frame offsets:
#	150
#	24512
#	45487
#	65172
#	83527
#	109153
#	127044
#	146588
#	169919
#	185888
#	203293
#	222465
#	246037
#	267758
#	282630
#	300901
#
# Disc length: 4258 seconds
#
# Revision: 0
# Processed by: cddbd v1.5.1PL0 Copyright (c) Steve Scherf et al.
# Submitted via: audiograbber 1.83.01
#
DISCID=ea10a010
DTITLE=Queen - Greatest Hits
DYEAR=1900
DGENRE=rock
TTITLE0=Made in Heaven
TTITLE1=Love of my live (live)
TTITLE2=One Year Of Love
TTITLE3=Friends Will Be Friends
TTITLE4=Radio Ga Ga
TTITLE5=I Want It All
TTITLE6=A Kind Of Magic
TTITLE7=Live On My Own
TTITLE8=The Great Pretender
TTITLE9=How Can I Go On
TTITLE10=The Show Must Go On
TTITLE11=Who Wants To Live Forever
TTITLE12=I Was Born To Love You
TTITLE13=I Want To Break Free
TTITLE14=We Are The Champions
TTITLE15=It's A Hard Life
EXTD=
EXTT0=
EXTT1=
EXTT2=
EXTT3=
EXTT4=
EXTT5=
EXTT6=
EXTT7=
EXTT8=
EXTT9=
EXTT10=
EXTT11=
EXTT12=
EXTT13=
EXTT14=
EXTT15=
PLAYORDER=
